<svg xmlns="http://www.w3.org/2000/svg" xmlns:xlink="http://www.w3.org/1999/xlink" width="600" height="600"><g><path d="M0,185.29535212973133L120.32038019318134,120.05397432902828L486.0975291109644,102.94152656663209L547.05996761797,125.93656643177383L600,286.3651672778651L150.26922701811418,497.05847343360074Z" stroke-width="0.5" stroke="#000000" fill="transparent"></path></g><g><path d="M106.65483557339758,333.1758756265044L183.6599254598841,298.9517386839725L218.41964027658105,382.3735928116366L146.7622266835533,417.6675120603759Z" stroke-width="0.5" stroke="#000000" fill="transparent"></path></g><g><path d="M471.62785710254684,174.05691530555487L473.2323410832323,166.57017604797147L487.67088598338887,154.80512754968368L506.3875719187781,150.52730908617377L530.4515719618648,158.01408620807342L556.6544850147329,218.44191368110478L540.0768234790303,239.83236892754212L520.2907243864611,246.24948790040798L501.5741199753247,243.57586157415062Z" stroke-width="0.5" stroke="#000000" fill="transparent"></path></g><g><path d="M355.6580307316035,231.85036570508964L355.5641108765267,234.5398784542922L355.28280888078734,237.21628816751763L354.8154952181503,239.86655564722605L354.1644465941936,242.47776905517094L353.3328348523937,245.0372068216093L352.3247115216218,247.53239962272346L351.1449880776927,249.9511911328882L349.7994120144285,252.28179723932408L348.2945388434455,254.51286346721463L346.6377001539804,256.6335202821065L344.83696789992973,258.63343605888076L342.9011150668375,260.5028674104251L340.8395729335025,262.2327066534199L338.6623851284385,263.8145261849277L336.38015869120136,265.24061954091303L334.0040123988874,266.50403893599287L331.5455225976184,267.59862911654636L329.0166668025777,268.51905735302716L326.42976534413174,269.2608394094277L323.79742134874687,269.8203613979276L321.1324593294412,270.1948973853141L318.4478627140634,270.3826226675883L315.7567105870694,270.3826226675883L313.07211397215724,270.1948973853141L310.4071519523859,269.8203613979276L307.77480795653537,269.2608394094277L305.1879064985551,268.51905735302716L302.65905070351437,267.59862911654636L300.20056090224534,266.50403893599287L297.82441460946575,265.24061954091303L295.5421881726943,263.8145261849277L293.3650003676303,262.2327066534199L291.3034582347609,260.5028674104251L289.36760540120304,258.63343605888076L287.56687314715236,256.6335202821065L285.91003445815295,254.51286346721463L284.40516128670424,252.28179723932408L283.0595852234401,249.9511911328882L281.879861779511,247.53239962272346L280.8717384492047,245.0372068216093L280.0401267069392,242.47776905517094L279.38907808298245,239.86655564722605L278.9217644208111,237.21628816751763L278.6404624246061,234.5398784542922L278.54654256952927,231.85036570508964L278.6404624246061,229.1608529551886L278.9217644208111,226.484443240799L279.38907808298245,223.83417576155625L280.0401267069392,221.22296235500835L280.8717384492047,218.6635245878715L281.879861779511,216.168331785826L283.0595852234401,213.7495402765926L284.40516128670424,211.41893416899256L285.91003445815295,209.18786794226617L287.56687314715236,207.06721112760715L289.36760540120304,205.06729534990154L291.3034582347609,203.19786399859004L293.3650003676303,201.46802475559525L295.5421881726943,199.88620522408746L297.82441460946575,198.46011186903343L300.20056090224534,197.19669247302227L302.65905070351437,196.10210229177028L305.1879064985551,195.1816740555223L307.77480795653537,194.43989199888892L310.4071519523859,193.88037001038902L313.07211397215724,193.50583402300254L315.7567105870694,193.31810874072835L318.4478627140634,193.31810874072835L321.1324593294412,193.50583402300254L323.79742134874687,193.88037001038902L326.42976534413174,194.43989199888892L329.0166668025777,195.1816740555223L331.5455225976184,196.10210229177028L334.0040123988874,197.19669247302227L336.38015869120136,198.46011186903343L338.6623851284385,199.88620522408746L340.8395729335025,201.46802475559525L342.9011150668375,203.19786399859004L344.83696789992973,205.06729534990154L346.6377001539804,207.06721112760715L348.2945388434455,209.18786794226617L349.7994120144285,211.41893416899256L351.1449880776927,213.7495402765926L352.3247115216218,216.168331785826L353.3328348523937,218.6635245878715L354.1644465941936,221.22296235500835L354.8154952181503,223.83417576155625L355.28280888078734,226.484443240799L355.5641108765267,229.1608529551886Z" stroke-width="0.5" stroke="#000000" fill="transparent"></path></g><g><path d="M582.838804660365,269.1945257568732L582.7679385193624,271.22386653744616L582.5556853474118,273.24332057195716L582.2030792217702,275.24304928514175L581.711838001851,277.21331020095386L581.0843549678102,279.1445044048596L580.3236871538684,281.02722331206314L579.4335404555313,282.85229450673796L578.4182515791617,284.610826424323L577.2827669098042,286.29425167501904L576.0326184150763,287.89436878007837L574.6738966926932,289.4033821292687L573.2132212975994,290.81393996137194L571.657708493527,292.1191701819189L570.0149365835823,293.3127138381824L568.2929089860991,294.38875610614195L566.5000152476132,295.3420546182897L564.6449901657179,296.16796499607153L562.7368712360039,296.86246349010617L560.7849546219222,297.4221665728837L558.7987498650327,297.8443474273663L556.7879335558973,298.1269492285792L554.7623021886684,298.26859517232515L552.7317244354635,298.26859517232515L550.7060930687003,298.1269492285792L548.6952767590992,297.8443474273663L546.7090720026754,297.4221665728837L544.7571553885937,296.86246349010617L542.849036458414,296.16796499607153L540.9940113769844,295.3420546182897L539.2011176380329,294.38875610614195L537.4790900419466,293.3127138381824L535.8363181310706,292.1191701819189L534.2808053269982,290.81393996137194L532.82012993237,289.4033821292687L531.4614082095213,287.89436878007837L530.2112597147934,286.29425167501904L529.0757750449702,284.610826424323L528.0604861690663,282.85229450673796L527.1703394716606,281.02722331206314L526.4096716563217,279.1445044048596L525.7821886227466,277.21331020095386L525.2909474037588,275.24304928514175L524.9383412776515,273.24332057195716L524.7260881052352,271.22386653744616L524.655221963767,269.1945257568732L524.7260881052352,267.16518497816287L524.9383412776515,265.1457309424877L525.2909474037588,263.14600222953595L525.7821886227466,261.175741314888L526.4096716563217,259.24454711121507L527.1703394716606,257.3618282037787L528.0604861690663,255.53675700863823L529.0757750449702,253.77822509012185L530.2112597147934,252.09479983942583L531.4614082095213,250.49468273529783L532.82012993237,248.98566938587464L534.2808053269982,247.57511155307293L535.8363181310706,246.26988133392297L537.4790900419466,245.07633767696097L539.2011176380329,244.00029540783726L540.9940113769844,243.04699689755216L542.849036458414,242.22108651860617L544.7571553885937,241.52658802457154L546.7090720026754,240.9668849427253L548.6952767590992,240.5447040887084L550.7060930687003,240.26210228633136L552.7317244354635,240.12045634281822L554.7623021886684,240.12045634281822L556.7879335558973,240.26210228633136L558.7987498650327,240.5447040887084L560.7849546219222,240.9668849427253L562.7368712360039,241.52658802457154L564.6449901657179,242.22108651860617L566.5000152476132,243.04699689755216L568.2929089860991,244.00029540783726L570.0149365835823,245.07633767696097L571.657708493527,246.26988133392297L573.2132212975994,247.57511155307293L574.6738966926932,248.98566938587464L576.0326184150763,250.49468273529783L577.2827669098042,252.09479983942583L578.4182515791617,253.77822509012185L579.4335404555313,255.53675700863823L580.3236871538684,257.3618282037787L581.0843549678102,259.24454711121507L581.711838001851,261.175741314888L582.2030792217702,263.14600222953595L582.5556853474118,265.1457309424877L582.7679385193624,267.16518497816287Z" stroke-width="0.5" stroke="#000000" fill="transparent"></path></g><g><path d="M57.608331790193915,182.79206060385332L115.36649543745443,151.03875124733895L156.4278844720684,232.6122417221777L90.7316902577877,257.52227829862386Z" stroke-width="0.5" stroke="#000000" fill="transparent"></path></g><g><path d="M105.24122361373156,278.5983753625769L152.87085576402023,255.87834354536608L165.18916381848976,282.7045897755306L120.29693345865235,304.32976654940285Z" stroke-width="0.5" stroke="#000000" fill="transparent"></path></g><g><path d="M381.1664707479067,204.6899168365635L404.9812868232839,192.09799755108543L418.9421083885245,236.16925693606026L391.02118962910026,236.99051122902893Z" stroke-width="0.5" stroke="#000000" fill="transparent"></path></g><g><path d="M213.09695481695235,349.2068053903058L211.97707570390776,347.71375549258664L255.46221345290542,334.4630265708547L275.43206294905394,372.53573848539963L232.32033896632493,390.26540220947936L226.7213055882603,382.2404743239749L232.32033896632493,379.4406752071809L259.0083765811287,365.07053686794825L248.7436631480232,347.1535024640616L215.7097646226175,357.791589242639Z" stroke-width="0.5" stroke="#000000" fill="transparent"></path></g><g><path d="M471.5815878608264,282.9519570444245L436.86822882434353,299.0022905685473L429.9627896300517,301.05514525575563L406.0737176965922,260.7429079466965L444.70665391907096,241.1463900266681L448.81239614263177,252.15786375640891L418.76471760170534,265.0354213316459L433.50895244581625,291.9099475208204L464.116208284162,277.35314029455185Z" stroke-width="0.5" stroke="#000000" fill="transparent"></path></g><g><path d="M190.0449024583213,297.3332047848962L280.7790148705244,252.54402176383883" stroke-width="0.5" stroke="#000000" fill="transparent"></path></g><g><path d="M315.74336477788165,392.1137328641489L250.72626931313425,251.67775835795328L249.57053378596902,226.25002066232264L257.66140684625134,211.51285340008326L267.77472653146833,200.8211213995237" stroke-width="0.5" stroke="#000000" fill="transparent"></path></g><g><path d="M238.87988961674273,428.81245023664087L164.32607457973063,243.8770672811661L168.08266777452081,217.5829943397548L178.1959874597378,204.57929779752158L186.28686051955447,193.02078413031995L205.3584887352772,181.1734674347099L218.93973937258124,175.6831741007045L238.87807868700475,166.14732847199775L256.5049469470978,160.36824632203206L272.10900639696047,158.34546930715442L290.31356132775545,161.23501354129985L306.7843318753876,166.43609075178392L323.25546460878104,173.66040685074404L335.96964196208864,182.61822948325425L349.5508925993927,192.44326438335702L364.57690319186077,211.2255318306852L429.0148632423952,339.81322094099596" stroke-width="0.5" stroke="#000000" fill="transparent"></path></g><g><path d="M529.8619331535883,307.4499858212657L507.0344361150637,256.3035734719597" stroke-width="0.5" stroke="#000000" fill="transparent"></path></g><g><path d="M506.16736283060163,254.57009075209498L495.76465653115883,255.72558638337068L459.35554666956887,184.3517515240237L428.4368143850006,118.75787359965034" stroke-width="0.5" stroke="#000000" fill="transparent"></path></g><g><path d="M392.3163667661138,262.6614245020319L488.54085675626993,216.7162425185088" stroke-width="0.5" stroke="#000000" fill="transparent"></path></g><g><path d="M316.8980137463659,393.8504923186265L348.97248155716807,374.20116079831496L397.80674434360117,351.9515636637807L431.32633429579437,345.88311638101004L471.78106178017333,335.4805841476191L530.7293686242774,308.60737760877237" stroke-width="0.5" stroke="#000000" fill="transparent"></path></g><g><path d="M316.0305782756768,394.7186322687194L240.6115008839406,431.12762367352843" stroke-width="0.5" stroke="#000000" fill="transparent"></path></g><g><path d="M161.72485472587869,230.586637575645L138.3185844598338,175.39441266097128" stroke-width="0.5" stroke="#000000" fill="transparent"></path></g><g><path d="M162.30290358234197,241.85625897464342L107.68923878995702,263.81739604705945" stroke-width="0.5" stroke="#000000" fill="transparent"></path></g></svg>