<svg xmlns="http://www.w3.org/2000/svg" xmlns:xlink="http://www.w3.org/1999/xlink" width="600" height="600"><g><path d="M4.656612873077393e-10,185.29537391173653L120.32038980908692,120.05400849878788L486.0975475781597,102.94156398880295L547.0599846555851,125.9365994897671L600.0000000004657,286.3651698648464L150.26919480599463,497.05843601119705Z" stroke-width="0.5" stroke="#000000" fill="transparent"></path></g><g><path d="M105.34834152041003,330.7497010973748L182.35344894742593,296.5255563587416L217.1131716822274,379.9474294888787L145.45574176637456,415.24135677702725Z" stroke-width="0.5" stroke="#000000" fill="transparent"></path></g><g><path d="M470.3214461854659,171.63070453098044L471.9259305316955,164.1439635681454L486.3644787208177,152.37891238974407L505.08116891933605,148.10109295183793L529.1451744441874,155.5878717789892L555.3480934659019,216.01571301696822L538.7704281536862,237.4061731356196L518.9843245544471,243.8232935704291L500.267715879716,241.14966663508676Z" stroke-width="0.5" stroke="#000000" fill="transparent"></path></g><g><path d="M354.3515933980234,229.42416809522547L354.2576735219918,232.11368145700544L353.9763714619912,234.79009178001434L353.50905769271776,237.44035986321978L352.85800892068073,240.05157386604697L352.0263969893567,242.61101221549325L351.0182734290138,245.1062055847142L349.8385497163981,247.52499764598906L348.49297334672883,249.8556042832788L346.9880998325534,252.08667101943865L345.3312607659027,254.20732831722125L343.53052810160443,256.20724454987794L341.594674827531,258.0766763270367L339.5331322248094,259.80651596421376L337.3559439238161,261.38833585591055L335.0737169664353,262.8144295369275L332.69757013302296,264.077849219786L330.2390797715634,265.1724396497011L327.7102234004997,266.0928680957295L325.1233213529922,266.8346503211651L322.4909767578356,267.39417243679054L319.8260141313076,267.7687085098587L317.1414169049822,267.9564338347409L314.4502641647123,267.9564338347409L311.76566693838686,267.7687085098587L309.1007043113932,267.39417243679054L306.46835971577093,266.8346503211651L303.8814576687291,266.0928680957295L301.3526012976654,265.1724396497011L298.89411093620583,264.077849219786L296.5179641023278,262.8144295369275L294.2357371458784,261.38833585591055L292.0585488448851,259.80651596421376L289.9970062421635,258.0766763270367L288.06115296809,256.20724454987794L286.2604203033261,254.20732831722125L284.60358123714104,252.08667101943865L283.0987077229656,249.8556042832788L281.75313135329634,247.52499764598906L280.57340764068067,245.1062055847142L279.56528408033773,242.61101221549325L278.7336721490137,240.05157386604697L278.08262337651104,237.44035986321978L277.61530960770324,234.79009178001434L277.334007547237,232.11368145700544L277.2400876712054,229.42416809522547L277.334007547237,226.73465473251417L277.61530960770324,224.05824440857396L278.08262337651104,221.40797632560134L278.7336721490137,218.79676232417114L279.56528408033773,216.23732397402637L280.57340764068067,213.74213060364127L281.75313135329634,211.32333854353055L283.0987077229656,208.99273190484382L284.60358123714104,206.76166517008096L286.2604203033261,204.64100787229836L288.06115296809,202.641091639176L289.9970062421635,200.77165986178443L292.0585488448851,199.0418202248402L294.2357371458784,197.4600003331434L296.5179641023278,196.03390665329061L298.89411093620583,194.77048696950078L301.3526012976654,193.67589653888717L303.8814576687291,192.7554680928588L306.46835971577093,192.01368586719036L309.1007043113932,191.4541637513321L311.76566693838686,191.07962767849676L314.4502641647123,190.89190235361457L317.1414169049822,190.89190235361457L319.8260141313076,191.07962767849676L322.4909767578356,191.4541637513321L325.1233213529922,192.01368586719036L327.7102234004997,192.7554680928588L330.2390797715634,193.67589653888717L332.69757013302296,194.77048696950078L335.0737169664353,196.03390665329061L337.3559439238161,197.4600003331434L339.5331322248094,199.0418202248402L341.594674827531,200.77165986178443L343.53052810160443,202.641091639176L345.3312607659027,204.64100787229836L346.9880998325534,206.76166517008096L348.49297334672883,208.99273190484382L349.8385497163981,211.32333854353055L351.0182734290138,213.74213060364127L352.0263969893567,216.23732397402637L352.85800892068073,218.79676232417114L353.50905769271776,221.40797632560134L353.9763714619912,224.05824440857396L354.2576735219918,226.73465473251417Z" stroke-width="0.5" stroke="#000000" fill="transparent"></path></g><g><path d="M581.5324190757237,266.7683366534766L581.4615529188886,268.7976778962184L581.2492996980436,270.8171323905699L580.8966934923083,272.81686155940406L580.4054521606304,274.78712292411365L579.7779689836316,276.7183175678365L579.0173009964637,278.60103690391406L578.1271540950984,280.4261085144244L577.1118649877608,282.1846408324782L575.9763800599612,283.86806646664627L574.7262312802486,285.4681839363184L573.3675092486665,286.97719762916677L571.9068335206248,288.3877557825763L570.3513203621842,289.69298630044796L568.7085480783135,290.8865302284248L566.9865200882778,291.9625727417879L565.1936259414069,292.9158714709338L563.3386004371569,293.7417820368428L561.4304810725152,294.4362806889694L559.478564013727,294.99598389933817L557.4923588046804,295.4181648499798L555.4815420373343,295.70076671568677L553.455910208635,295.84241269156337L551.4253319930285,295.84241269156337L549.3997001647949,295.70076671568677L547.3888833969831,295.4181648499798L545.4026781884022,294.99598389933817L543.450761129614,294.4362806889694L541.5426417649724,293.7417820368428L539.6876162607223,292.9158714709338L537.8947221133858,291.9625727417879L536.1726941247471,290.8865302284248L534.529921839945,289.69298630044796L532.9744086819701,288.3877557825763L531.5137329539284,286.97719762916677L530.1550109218806,285.4681839363184L528.904862142168,283.86806646664627L527.7693772139028,282.1846408324782L526.7540881065652,280.4261085144244L525.8639412065968,278.60103690391406L525.103273218032,276.7183175678365L524.4757900414988,274.78712292411365L523.9845487107523,272.81686155940406L523.6319425040856,270.8171323905699L523.4196892832406,268.7976778962184L523.3488231259398,266.7683366534766L523.4196892832406,264.7389954123646L523.6319425040856,262.7195409168489L523.9845487107523,260.7198117482476L524.4757900414988,258.74955038470216L525.103273218032,256.81835574121214L525.8639412065968,254.93563640490174L526.7540881065652,253.11056479415856L527.7693772139028,251.35203247494064L528.904862142168,249.66860684100538L530.1550109218806,248.0684893722646L531.5137329539284,246.55947567895055L532.9744086819701,245.14891752484255L534.529921839945,243.84368700836785L536.1726941247471,242.6501430796925L537.8947221133858,241.57410056563094L539.6876162607223,240.62080183811486L541.5426417649724,239.79489127080888L543.450761129614,239.10039261868224L545.4026781884022,238.54068940947764L547.3888833969831,238.11850845930167L549.3997001647949,237.83590659243055L551.4253319930285,237.69426061655395L553.455910208635,237.69426061655395L555.4815420373343,237.83590659243055L557.4923588046804,238.11850845930167L559.478564013727,238.54068940947764L561.4304810725152,239.10039261868224L563.3386004371569,239.79489127080888L565.1936259414069,240.62080183811486L566.9865200882778,241.57410056563094L568.7085480783135,242.6501430796925L570.3513203621842,243.84368700836785L571.9068335206248,245.14891752484255L573.3675092486665,246.55947567895055L574.7262312802486,248.0684893722646L575.9763800599612,249.66860684100538L577.1118649877608,251.35203247494064L578.1271540950984,253.11056479415856L579.0173009964637,254.93563640490174L579.7779689836316,256.81835574121214L580.4054521606304,258.74955038470216L580.8966934923083,260.7198117482476L581.2492996980436,262.7195409168489L581.4615529188886,264.7389954123646Z" stroke-width="0.5" stroke="#000000" fill="transparent"></path></g><g><path d="M218.19538369681686,348.1683374068234L253.57987742405385,333.90915844962L273.6486082696356,377.215146855684L233.24747511046007,389.09811707097106L229.28624592302367,381.1761418725364L260.97390630375594,370.0856306680944L249.88304407754913,344.20778002613224L222.948713847436,355.03405797854066Z" stroke-width="0.5" stroke="#000000" fill="transparent"></path></g><g><path d="M445.5529887294397,240.16655760328285L448.9857884226367,246.5038464218378L418.8826921535656,260.7634182649199L431.02968899719417,282.94468744052574L460.0766506488435,267.1011447964702L467.7343509956263,278.1915371848736L429.70952072553337,293.7711744713597L409.90446134796366,258.1229744765442Z" stroke-width="0.5" stroke="#000000" fill="transparent"></path></g><g><path d="M15.657666543498635,185.7685003625229L67.67772923829034,159.89010383584537L116.26535442657769,141.66974715166725L152.17900202050805,229.86711939028464L56.58904012851417,274.49378631054424Z" stroke-width="0.5" stroke="#000000" fill="transparent"></path></g><g><path d="M102.53560440149158,268.157032269286L151.91496836580336,246.5038464218378L166.43899247096851,285.32125989883207L119.69996504951268,306.71033189748414Z" stroke-width="0.5" stroke="#000000" fill="transparent"></path></g><g><path d="M379.5369692388922,204.51631859969348L385.8741391291842,193.95386410830542L402.7741039372049,188.40852550696582L419.4103972762823,233.29915182385594L391.4199324287474,233.82734066341072Z" stroke-width="0.5" stroke="#000000" fill="transparent"></path></g><g><path d="M188.73842740012333,294.9070220910944L279.47256048070267,250.1178288673982" stroke-width="0.5" stroke="#000000" fill="transparent"></path></g><g><path d="M314.4369183522649,389.6875717600342L249.41980807762593,249.2515652643051L248.26407228736207,223.82382177654654L256.35494719073176,209.08665115735494L266.46826917957515,198.39491672161967" stroke-width="0.5" stroke="#000000" fill="transparent"></path></g><g><path d="M237.57342568272725,426.3862974920776L163.01959366351366,241.45087241078727L166.77618771372363,215.1567934800405L176.889509702567,202.153093975503L184.98038460547104,190.59457767545246L204.0520171658136,178.7472582811024L217.63327089650556,173.25696369656362L237.5716147525236,163.72111589554697L255.19848702801391,157.94203242938966L270.80255003180355,155.91925495374016L289.00710910977796,158.80879984609783L305.4778834092431,164.00987824122421L321.94901989446953,171.23419598583132L334.6632001437247,180.1920206588693L348.2444538748823,190.0170577969402L363.2704678904265,208.7993295227643L427.70844261860475,337.38704792340286" stroke-width="0.5" stroke="#000000" fill="transparent"></path></g><g><path d="M528.5555355018005,305.0238054320216L505.72803326370195,253.877381432103" stroke-width="0.5" stroke="#000000" fill="transparent"></path></g><g><path d="M504.8609597813338,252.14389831735753L494.4582511126064,253.29939421173185L458.0491329571232,181.9255430942867L427.13039362989366,116.33165022870526" stroke-width="0.5" stroke="#000000" fill="transparent"></path></g><g><path d="M391.00993778323755,260.2352339103818L487.2344496916048,214.2900414611213" stroke-width="0.5" stroke="#000000" fill="transparent"></path></g><g><path d="M315.59156758431345,391.42433161009103L347.66604270087555,371.77499561407603L396.5003166110255,349.5253934112843L430.0199141986668,343.45694474619813L470.47465089848265,333.0544101432897L529.42297116993,306.18119748309255" stroke-width="0.5" stroke="#000000" fill="transparent"></path></g><g><path d="M314.7241319157183,392.29247175808996L239.30503734434023,428.70147145632654" stroke-width="0.5" stroke="#000000" fill="transparent"></path></g><g><path d="M160.4183732168749,228.16043967776932L137.01209761900827,172.96820219117217" stroke-width="0.5" stroke="#000000" fill="transparent"></path></g><g><path d="M160.99642220512033,239.43006364395842L106.38274497212842,261.3912057187408" stroke-width="0.5" stroke="#000000" fill="transparent"></path></g><g><path d="M254.7859570798464,365.64290302735753" stroke-width="0.5" stroke="#000000" fill="transparent"></path></g></svg>